<svg width="6" height="10" viewBox="0 0 6 10" fill="none" xmlns="http://www.w3.org/2000/svg">
<path d="M0.850005 1.36589L0.850005 1.36597C0.85064 1.4987 0.900623 1.62742 0.991537 1.72369L3.97759 5.00092L0.99123 8.27849C0.945579 8.32738 0.910014 8.38496 0.886212 8.44765C0.862272 8.5107 0.850602 8.57792 0.8517 8.64542L0.851702 8.64554C0.853413 8.74575 0.88323 8.84387 0.938291 8.92736C0.993406 9.01094 1.07171 9.07659 1.16421 9.11444C1.25684 9.15235 1.35851 9.16023 1.4558 9.13673C1.55263 9.11334 1.63939 9.06028 1.7057 8.98582L5.01442 5.35479C5.10222 5.25851 5.15 5.1315 5.15 5.00092C5.15 4.87034 5.10222 4.74333 5.01442 4.64705L1.70602 1.01638C1.63943 0.940727 1.55185 0.886817 1.45395 0.863218C1.35542 0.839467 1.25244 0.847905 1.15895 0.887065C1.06559 0.926169 0.987035 0.993612 0.932486 1.07908L1.05893 1.15978L0.932486 1.07908C0.877993 1.16446 0.849571 1.2644 0.850005 1.36589Z" fill="#7C19B9" stroke="#7C19B9" stroke-width="0.3"/>
</svg>
