<svg width="222" height="48" viewBox="0 0 222 48" fill="none" xmlns="http://www.w3.org/2000/svg">
<path d="M29.5251 0H44L21.7603 36.3636H42.4662V48H0L29.5251 0Z" fill="white"/>
<path d="M6.13518 11.6364C9.31172 11.6364 11.8868 9.03148 11.8868 5.81818C11.8868 2.60489 9.31172 0 6.13518 0C2.95864 0 0.383545 2.60489 0.383545 5.81818C0.383545 9.03148 2.95864 11.6364 6.13518 11.6364Z" fill="url(#paint0_linear)"/>
<path d="M220.91 30.8368C217.96 34.1721 214.753 35.7115 210.776 35.7115C202.822 35.7115 198.589 29.9389 198.589 24.038C198.589 17.624 203.079 12.3645 210.134 12.3645C217.062 12.3645 221.808 17.624 221.808 25.5774H202.694C203.336 29.4258 206.414 32.2479 210.776 32.2479C213.47 32.2479 215.907 30.9651 217.96 28.6561L220.91 30.8368ZM217.575 22.2421C217.19 18.522 214.239 15.8281 210.134 15.8281C205.388 15.8281 203.079 19.1634 202.694 22.2421H217.575Z" fill="white"/>
<path d="M179.989 28.6561C180.245 31.0934 182.298 32.2479 184.607 32.2479C188.07 32.2479 188.968 30.3237 188.968 29.0409C188.968 27.6298 188.07 26.7319 184.991 25.8339L181.143 24.8077C177.808 23.9097 176.653 21.7289 176.653 19.0351C176.653 15.3149 179.475 12.2362 184.607 12.2362C190.251 12.2362 192.303 15.8281 192.303 19.1633H188.712C188.455 16.5977 187.172 15.4432 184.607 15.4432C182.169 15.4432 180.63 16.8543 180.63 18.6502C180.63 19.933 181.271 20.831 183.067 21.3441L188.327 22.8835C191.79 23.9097 192.945 25.8339 192.945 28.6561C192.945 33.1459 188.968 35.5832 184.863 35.5832C179.604 35.5832 176.525 32.761 176.397 28.5278H179.989V28.6561Z" fill="white"/>
<path d="M167.417 3C168.956 3 170.111 4.15452 170.111 5.69388C170.111 7.23325 168.956 8.38776 167.417 8.38776C165.877 8.38776 164.723 7.23325 164.723 5.69388C164.723 4.15452 165.877 3 167.417 3ZM165.493 12.7493H169.341V35.07H165.493V12.7493Z" fill="white"/>
<path d="M148.303 12.7493H152.152V15.9563H152.28C154.204 12.4928 156 12.2362 159.336 12.2362V16.3412C158.822 16.2129 158.181 16.0846 157.54 16.0846C154.333 16.0846 152.152 18.2654 152.152 22.3703V35.0701H148.303V12.7493Z" fill="white"/>
<path d="M136.117 22.1138C136.117 18.7785 134.706 15.8281 130.986 15.8281C127.394 15.8281 125.213 18.2654 125.213 22.4986V35.0701H121.365V12.7493H125.213V15.3149H125.341C126.496 13.2624 128.933 12.2362 131.499 12.2362C135.86 12.2362 140.094 14.5452 140.094 20.7027V35.1983H136.245V22.1138H136.117Z" fill="white"/>
<path d="M113.283 30.8368C110.332 34.1721 107.125 35.7115 103.149 35.7115C95.1954 35.7115 90.9622 29.9389 90.9622 24.038C90.9622 17.624 95.452 12.3645 102.507 12.3645C109.434 12.3645 114.181 17.624 114.181 25.5774H95.1954C95.8368 29.4258 98.9155 32.2479 103.149 32.2479C105.843 32.2479 108.28 30.9651 110.332 28.6561L113.283 30.8368ZM109.948 22.2421C109.563 18.522 106.612 15.8281 102.507 15.8281C97.761 15.8281 95.452 19.1634 95.0671 22.2421H109.948Z" fill="white"/>
<path d="M79.6735 16.2128H69.1545V12.8776H86.0875L74.414 31.7347H85.4461V35.07H68L79.6735 16.2128Z" fill="white"/>
<defs>
<linearGradient id="paint0_linear" x1="-6.68617" y1="3.27273" x2="15.4968" y2="0.477579" gradientUnits="userSpaceOnUse">
<stop offset="0.322917" stop-color="#FDA219"/>
<stop offset="1" stop-color="#A700E1"/>
</linearGradient>
</defs>
</svg>
