<svg width="178" height="39" viewBox="0 0 178 39" fill="none" xmlns="http://www.w3.org/2000/svg">
<path d="M23.6732 0H35.2793L17.4475 29.5455H34.0495V39H0L23.6732 0Z" fill="white"/>
<path d="M4.91929 9.45455C7.46624 9.45455 9.53096 7.33807 9.53096 4.72727C9.53096 2.11647 7.46624 0 4.91929 0C2.37233 0 0.307617 2.11647 0.307617 4.72727C0.307617 7.33807 2.37233 9.45455 4.91929 9.45455Z" fill="url(#paint0_linear)"/>
<path d="M177.126 25.0549C174.76 27.7648 172.189 29.0156 169 29.0156C162.623 29.0156 159.229 24.3253 159.229 19.5308C159.229 14.3195 162.829 10.0461 168.486 10.0461C174.04 10.0461 177.846 14.3195 177.846 20.7816H162.521C163.035 23.9084 165.503 26.2014 169 26.2014C171.16 26.2014 173.115 25.1591 174.76 23.283L177.126 25.0549ZM174.452 18.0717C174.143 15.0491 171.778 12.8603 168.486 12.8603C164.681 12.8603 162.829 15.5702 162.521 18.0717H174.452Z" fill="white"/>
<path d="M144.315 23.283C144.521 25.2633 146.167 26.2014 148.018 26.2014C150.795 26.2014 151.515 24.638 151.515 23.5957C151.515 22.4492 150.795 21.7196 148.327 20.99L145.241 20.1562C142.567 19.4266 141.641 17.6547 141.641 15.466C141.641 12.4434 143.904 9.94189 148.018 9.94189C152.544 9.94189 154.189 12.8603 154.189 15.5702H151.309C151.104 13.4856 150.075 12.5476 148.018 12.5476C146.064 12.5476 144.83 13.6941 144.83 15.1533C144.83 16.1955 145.344 16.9251 146.784 17.342L151.001 18.5928C153.778 19.4266 154.704 20.99 154.704 23.283C154.704 26.931 151.515 28.9113 148.224 28.9113C144.007 28.9113 141.538 26.6183 141.435 23.1788H144.315V23.283Z" fill="white"/>
<path d="M134.235 2.4375C135.469 2.4375 136.395 3.37555 136.395 4.62628C136.395 5.87701 135.469 6.81506 134.235 6.81506C133.001 6.81506 132.075 5.87701 132.075 4.62628C132.075 3.37555 133.001 2.4375 134.235 2.4375ZM132.692 10.3588H135.778V28.4944H132.692V10.3588Z" fill="white"/>
<path d="M118.91 10.3588H121.996V12.9645H122.098C123.641 10.1504 125.081 9.94189 127.755 9.94189V13.2772C127.344 13.1729 126.83 13.0687 126.315 13.0687C123.744 13.0687 121.996 14.8406 121.996 18.1759V28.4944H118.91V10.3588Z" fill="white"/>
<path d="M109.139 17.9674C109.139 15.2575 108.007 12.8603 105.024 12.8603C102.144 12.8603 100.396 14.8406 100.396 18.2801V28.4944H97.3103V10.3588H100.396V12.4434H100.499C101.425 10.7757 103.379 9.94189 105.436 9.94189C108.933 9.94189 112.327 11.818 112.327 16.8209V28.5986H109.242V17.9674H109.139Z" fill="white"/>
<path d="M90.8304 25.0549C88.4647 27.7648 85.8933 29.0156 82.7048 29.0156C76.3278 29.0156 72.9336 24.3253 72.9336 19.5308C72.9336 14.3195 76.5335 10.0461 82.1906 10.0461C87.7447 10.0461 91.5504 14.3195 91.5504 20.7816H76.3278C76.8421 23.9084 79.3106 26.2014 82.7048 26.2014C84.8648 26.2014 86.819 25.1591 88.4647 23.283L90.8304 25.0549ZM88.1562 18.0717C87.8476 15.0491 85.4819 12.8603 82.1906 12.8603C78.3849 12.8603 76.5335 15.5702 76.225 18.0717H88.1562Z" fill="white"/>
<path d="M63.8823 13.1729H55.4482V10.463H69.025L59.6652 25.7845H68.5108V28.4944H54.5225L63.8823 13.1729Z" fill="white"/>
<defs>
<linearGradient id="paint0_linear" x1="-5.36089" y1="2.65909" x2="12.4327" y2="0.446541" gradientUnits="userSpaceOnUse">
<stop offset="0.322917" stop-color="#FDA219"/>
<stop offset="1" stop-color="#A700E1"/>
</linearGradient>
</defs>
</svg>
